<?xml version="1.0" encoding="UTF-8" standalone="no"?>
<svg
        id="Livello_1"
        data-name="Livello 1"
        viewBox="0 0 998.82 999.48"
        version="1.1"
        sodipodi:docname="blue_student.svg"
        inkscape:version="1.2 (dc2aedaf03, 2022-05-15)"
        xmlns:inkscape="http://www.inkscape.org/namespaces/inkscape"
        xmlns:sodipodi="http://sodipodi.sourceforge.net/DTD/sodipodi-0.dtd"
        xmlns="http://www.w3.org/2000/svg"
        xmlns:svg="http://www.w3.org/2000/svg">
    <sodipodi:namedview
            id="namedview9"
            pagecolor="#ffffff"
            bordercolor="#666666"
            borderopacity="1.0"
            inkscape:showpageshadow="2"
            inkscape:pageopacity="0.0"
            inkscape:pagecheckerboard="0"
            inkscape:deskcolor="#d1d1d1"
            showgrid="false"
            inkscape:zoom="0.29678563"
            inkscape:cx="414.44055"
            inkscape:cy="475.09039"
            inkscape:window-width="1920"
            inkscape:window-height="1011"
            inkscape:window-x="0"
            inkscape:window-y="32"
            inkscape:window-maximized="1"
            inkscape:current-layer="Livello_1"/>
    <defs
            id="defs4">
        <style
                id="style2">.cls-1{fill:#2ec4f3;}
        </style>
    </defs>
    <ellipse
            style="fill:#1d7c99;fill-opacity:1"
            id="path899"
            cx="499.41"
            cy="499.73999"
            rx="378.21912"
            ry="394.22394"/>
    <path
            class="cls-1"
            d="m 1000.66,504.1 c 2.15,277.14 -214.14,496.1 -496.09,497.42 C 218.77,1002.85 3.64,784.52 1.87,508.22 0.15,240.45 216.28,2.6 500.48,2 785.47,1.49 1002.27,239.88 1000.66,504.1 Z M 316.2,708 c -16.07,0.77 -29.31,0.27 -42.14,2.31 C 257.2,713 248.29,723.36 257.12,740 a 253.76,253.76 0 0 0 30.25,45.2 c 13.63,16 31.47,18 49.55,6.5 21.08,-13.4 42.19,-26.7 62.14,-41.7 4.19,-3.12 6.67,-14.33 4.44,-19.39 -25.9,-58.8 -45.32,-119.25 -50.1,-183.72 -5.23,-70.5 7.92,-134.38 66.72,-181.4 40.08,-32 84.41,-40.58 131.75,-20 48.33,21 81.77,56.07 90.49,110.06 11.14,69 -2.47,135.85 -20.59,201.92 -7.89,28.75 -18,56.89 -27.71,87.17 23.12,15.28 45.26,31 68.42,44.94 24.53,14.81 39.81,12.7 58.23,-8.72 A 148.53,148.53 0 0 0 744.82,742 c 8.69,-20.73 2.08,-30 -20.58,-32.36 -11.91,-1.25 -23.94,-1.35 -37.74,-2.06 15.07,-23.6 29.14,-44.16 41.7,-65.6 31.43,-53.64 59.74,-109.87 58.39,-173.12 C 784.45,367.63 728.46,278.7 631.29,237.4 578.7,215.09 523.84,210.72 467.42,215 c -94.45,7.1 -169,47.75 -216.93,130.33 -25.71,44.28 -39.3,92.77 -32.6,145.34 6.62,52 26.5,98.89 52.49,143.55 13.97,23.97 29.27,47.21 45.82,73.78 z"
            transform="translate(-1.86,-2.04)"
            id="path6"
            inkscape:label="path6"
            style="display:inline;stroke:#000000;stroke-opacity:0.99800003;stroke-width:5;stroke-dasharray:none"/>
</svg>
