<?xml version="1.0" encoding="UTF-8" standalone="no"?>
<svg
        id="Livello_1"
        data-name="Livello 1"
        viewBox="0 0 995.02 993.76"
        version="1.1"
        sodipodi:docname="yellow_student.svg"
        inkscape:version="1.2 (dc2aedaf03, 2022-05-15)"
        xmlns:inkscape="http://www.inkscape.org/namespaces/inkscape"
        xmlns:sodipodi="http://sodipodi.sourceforge.net/DTD/sodipodi-0.dtd"
        xmlns="http://www.w3.org/2000/svg"
        xmlns:svg="http://www.w3.org/2000/svg">
    <sodipodi:namedview
            id="namedview9"
            pagecolor="#ffffff"
            bordercolor="#666666"
            borderopacity="1.0"
            inkscape:showpageshadow="2"
            inkscape:pageopacity="0.0"
            inkscape:pagecheckerboard="0"
            inkscape:deskcolor="#d1d1d1"
            showgrid="false"
            inkscape:zoom="0.59698779"
            inkscape:cx="813.24947"
            inkscape:cy="527.64898"
            inkscape:window-width="1920"
            inkscape:window-height="1011"
            inkscape:window-x="0"
            inkscape:window-y="32"
            inkscape:window-maximized="1"
            inkscape:current-layer="Livello_1"/>
    <defs
            id="defs4">
        <style
                id="style2">.cls-1{fill:#fcb418;}
        </style>
    </defs>
    <ellipse
            style="fill:#f8ff00;stroke:none;stroke-width:5;stroke-opacity:0.998;fill-opacity:1"
            id="path845"
            cx="497.97577"
            cy="496.48489"
            rx="355.86795"
            ry="347.01859"/>
    <path
            class="cls-1"
            d="M500,1.92c274.88-.13,497.86,222.47,497.86,497,0,274.37-223.21,497-498.1,496.74C225.21,995.45,2.49,772.21,2.85,497.6,3.21,224.48,226.3,2.05,500,1.92ZM801.28,330.23c-23,1.86-40.06,1-55.93,4.9C661.68,355.83,606,408,576.76,488.83c-3.94,10.94-6.44,23.34-13.44,31.94-5.53,6.78-16.73,10.83-25.86,11.81-3.47.37-8.79-10.94-12.28-17.45-12.31-22.94-24-46.22-36.32-69.15-6.84-12.73-17.32-17.19-32.42-16.79-44.57,1.16-89.27,2.14-133.75-.1-23.81-1.2-36.82,8.51-46.38,27.8-26,52.44-34.94,107.9-29,165.81,4.4,42.62,24.24,77.84,61.15,98.75,76.08,43.12,154.53,46.27,230.4-.37,52.46-32.24,83.1-83.21,104.69-139.45,16.72-43.52,30.28-88.27,47.75-131.47,19.24-47.58,44.07-91.29,100.12-104.55C794,345,795.47,339.59,801.28,330.23Z"
            transform="translate(-2.85 -1.92)"
            id="path6"
            style="stroke:#000000;stroke-opacity:0.99800003;stroke-width:5;stroke-dasharray:none"/>
</svg>
