<?xml version="1.0" encoding="UTF-8" standalone="no"?>
<svg
        id="Livello_1"
        data-name="Livello 1"
        viewBox="0 0 998.82 999.48"
        version="1.1"
        sodipodi:docname="blue (copy).svg"
        inkscape:version="1.2 (dc2aedaf03, 2022-05-15)"
        xmlns:inkscape="http://www.inkscape.org/namespaces/inkscape"
        xmlns:sodipodi="http://sodipodi.sourceforge.net/DTD/sodipodi-0.dtd"
        xmlns="http://www.w3.org/2000/svg"
        xmlns:svg="http://www.w3.org/2000/svg">
    <sodipodi:namedview
            id="namedview9"
            pagecolor="#ffffff"
            bordercolor="#666666"
            borderopacity="1.0"
            inkscape:showpageshadow="2"
            inkscape:pageopacity="0.0"
            inkscape:pagecheckerboard="0"
            inkscape:deskcolor="#d1d1d1"
            showgrid="false"
            inkscape:zoom="0.41971826"
            inkscape:cx="966.12427"
            inkscape:cy="559.89939"
            inkscape:window-width="1920"
            inkscape:window-height="1011"
            inkscape:window-x="0"
            inkscape:window-y="32"
            inkscape:window-maximized="1"
            inkscape:current-layer="Livello_1"/>
    <defs
            id="defs4">
        <style
                id="style2">.cls-1{fill:#2ec4f3;}
        </style>
    </defs>
    <ellipse
            style="fill:#1d7c99;fill-opacity:1"
            id="path899"
            cx="499.41"
            cy="499.73999"
            rx="378.21912"
            ry="394.22394"/>
    <path
            id="path6"
            style="display:inline;stroke:#000000;stroke-opacity:0.99800003;stroke-width:5;stroke-dasharray:none"
            class="cls-1"
            inkscape:label="path6"
            d="M 252.67445 69.268516 C 252.10587 69.601184 251.54819 69.949297 250.98109 70.284141 L 1.9967188 501.54 C 1.9956953 501.6835 1.9878517 501.82617 1.9869531 501.96969 L 251.56703 934.2568 L 750.96742 934.2568 L 1000.6159 501.8525 C 1000.6159 501.79049 1000.6138 501.72896 1000.6139 501.66695 L 751.34047 69.915 C 750.97714 69.701403 750.61847 69.481225 750.25453 69.268516 L 252.67445 69.268516 z M 509.43227 213.55758 C 551.12894 214.0268 591.84723 220.66689 631.28969 237.39937 C 728.45959 278.69933 784.45047 367.63041 786.59047 468.86031 C 787.94047 532.11025 759.62981 588.33951 728.19984 641.97945 C 715.63986 663.41943 701.57061 683.97909 686.50063 707.57906 C 700.30061 708.28906 712.33087 708.38961 724.24086 709.63961 C 746.90084 711.99961 753.51093 721.27096 744.82094 742.00094 A 148.53 148.53 0 0 1 720.70961 780.86031 C 702.28963 802.28029 687.00912 804.38905 662.47914 789.57906 C 639.31916 775.63908 617.1792 759.91959 594.05922 744.63961 C 603.76921 714.35964 613.88016 686.21966 621.77016 657.46969 C 639.89014 591.39975 653.49999 524.5497 642.36 455.54977 C 633.64001 401.55982 600.19972 366.4892 551.86977 345.48922 C 504.52981 324.90924 460.19973 333.48925 420.11977 365.48922 C 361.31982 412.50917 348.16907 476.38968 353.39906 546.88961 C 358.17906 611.35954 377.60065 671.81037 403.50063 730.61031 C 405.73062 735.67031 403.24921 746.88094 399.05922 750.00094 C 379.10924 765.00092 358.00053 778.30017 336.92055 791.70016 C 318.84056 803.20014 300.99975 801.20014 287.36977 785.20016 A 253.76 253.76 0 0 1 257.11977 740.00094 C 248.28977 723.36095 257.19924 712.99953 274.05922 710.30953 C 286.88921 708.26953 300.12986 708.77094 316.19984 708.00094 C 299.64986 681.43096 284.34952 658.18966 270.37953 634.21969 C 244.38956 589.55973 224.50929 542.67081 217.8893 490.67086 C 211.1893 438.10091 224.78089 389.60902 250.49086 345.32906 C 298.42081 262.74915 372.97064 222.10093 467.42055 215.00094 C 481.52553 213.93094 495.53337 213.40117 509.43227 213.55758 z "
            transform="translate(-1.86,-2.04)"/>
</svg>
