<?xml version="1.0" encoding="UTF-8" standalone="no"?>
<svg
        id="Livello_1"
        data-name="Livello 1"
        viewBox="0 0 997.04 1000.28"
        version="1.1"
        sodipodi:docname="green (copy).svg"
        inkscape:version="1.2 (dc2aedaf03, 2022-05-15)"
        xmlns:inkscape="http://www.inkscape.org/namespaces/inkscape"
        xmlns:sodipodi="http://sodipodi.sourceforge.net/DTD/sodipodi-0.dtd"
        xmlns="http://www.w3.org/2000/svg"
        xmlns:svg="http://www.w3.org/2000/svg">
    <sodipodi:namedview
            id="namedview9"
            pagecolor="#ffffff"
            bordercolor="#666666"
            borderopacity="1.0"
            inkscape:showpageshadow="2"
            inkscape:pageopacity="0.0"
            inkscape:pagecheckerboard="0"
            inkscape:deskcolor="#d1d1d1"
            showgrid="false"
            inkscape:zoom="0.41938256"
            inkscape:cx="653.34142"
            inkscape:cy="455.43143"
            inkscape:window-width="1920"
            inkscape:window-height="1011"
            inkscape:window-x="0"
            inkscape:window-y="32"
            inkscape:window-maximized="1"
            inkscape:current-layer="Livello_1"/>
    <defs
            id="defs4">
        <style
                id="style2">.cls-1{fill:#23b480;}
        </style>
    </defs>
    <ellipse
            style="fill:#146e4e;stroke:none;stroke-width:5;stroke-opacity:0.998;fill-opacity:1"
            id="path845"
            cx="498.50467"
            cy="500.14001"
            rx="364.01578"
            ry="343.45496"/>
    <path
            id="path6"
            style="stroke:#000000;stroke-opacity:0.99800003;stroke-width:5;stroke-dasharray:none"
            class="cls-1"
            d="M 251.29977 68.890156 L 2.1415625 500.44289 C 2.140419 500.5572 2.1348191 500.67036 2.13375 500.78469 L 251.29977 932.35109 L 749.8193 932.35109 L 999.02047 500.72023 C 999.02002 500.65024 999.01704 500.58124 999.01656 500.51125 L 749.8193 68.890156 L 251.29977 68.890156 z M 500.85836 279.19289 C 506.50585 279.28289 511.98579 284.35462 518.59078 294.57961 C 554.38075 349.96955 588.81089 406.21052 623.67086 462.21047 C 627.47086 468.31046 630.54032 474.87024 634.36031 481.97023 C 669.79028 455.21026 703.89035 429.12076 738.36031 403.53078 C 754.8303 391.31079 771.77924 379.68077 788.98922 368.53078 C 794.07921 365.20078 800.79001 364.45078 806.79 362.53078 C 808.66 369.19077 813.02047 376.30079 812.02047 382.53078 C 802.13048 443.23072 792.3196 503.97061 780.38961 564.29055 C 774.15962 595.79052 764.67968 626.77073 754.96969 657.4507 C 745.7097 686.75067 735.96997 692.59914 705.04 692.59914 C 569.38014 692.60914 433.69986 691.85094 298.04 693.19094 C 268.68003 693.48094 250.88999 681.06013 243.29 655.89016 C 229.13001 609.0502 215.98983 561.7198 206.12984 513.81984 C 197.71985 473.01988 194.20023 431.18043 189.28023 389.71047 C 188.28024 380.85048 190.54024 371.57952 191.28023 362.49953 L 199.78023 357.65969 L 365.00094 480.07961 C 390.78091 437.99965 416.83932 395.00082 443.3193 352.36086 C 455.68928 332.45088 468.12009 312.43068 482.12008 293.7007 C 489.39507 283.99571 495.21087 279.10289 500.85836 279.19289 z "
            transform="translate(-2.04 -0.48)"/>
</svg>
