<?xml version="1.0" encoding="UTF-8" standalone="no"?>
<svg
        id="Livello_1"
        data-name="Livello 1"
        viewBox="0 0 998.69 1000.75"
        version="1.1"
        sodipodi:docname="pink (copy).svg"
        inkscape:version="1.2 (dc2aedaf03, 2022-05-15)"
        xmlns:inkscape="http://www.inkscape.org/namespaces/inkscape"
        xmlns:sodipodi="http://sodipodi.sourceforge.net/DTD/sodipodi-0.dtd"
        xmlns="http://www.w3.org/2000/svg"
        xmlns:svg="http://www.w3.org/2000/svg">
    <sodipodi:namedview
            id="namedview1271"
            pagecolor="#ffffff"
            bordercolor="#666666"
            borderopacity="1.0"
            inkscape:showpageshadow="2"
            inkscape:pageopacity="0.0"
            inkscape:pagecheckerboard="0"
            inkscape:deskcolor="#d1d1d1"
            showgrid="false"
            inkscape:zoom="0.83837122"
            inkscape:cx="503.35697"
            inkscape:cy="471.15167"
            inkscape:window-width="1920"
            inkscape:window-height="1011"
            inkscape:window-x="0"
            inkscape:window-y="32"
            inkscape:window-maximized="1"
            inkscape:current-layer="Livello_1"/>
    <defs
            id="defs1266">
        <style
                id="style1264">.cls-1{fill:#da61a3;}
        </style>
    </defs>
    <ellipse
            style="fill:#7e385f;stroke:none;stroke-width:5;stroke-opacity:0.998;fill-opacity:1"
            id="path3257"
            cx="499.345"
            cy="500.375"
            rx="436.95056"
            ry="417.47342"/>
    <path
            id="path1268"
            style="stroke:#000000;stroke-opacity:0.99800003;stroke-width:5;stroke-dasharray:none"
            class="cls-1"
            d="M 252.17773 69.409453 L 2.5722656 501.73563 C 2.5726711 501.81215 2.5776853 501.88762 2.578125 501.96414 L 252.00586 933.98367 C 252.17548 934.08313 252.34588 934.18128 252.51562 934.28055 L 751.29688 934.28055 C 751.40331 934.21815 751.5108 934.15747 751.61719 934.095 L 1001.1523 501.88797 C 1001.1525 501.85848 1001.1522 501.82957 1001.1523 501.80008 L 751.50977 69.409453 L 252.17773 69.409453 z M 172.85938 292.78055 C 178.02937 317.79052 197.35096 324.59969 217.46094 327.89969 C 247.11091 332.77968 277.21097 334.82969 306.96094 339.14969 C 378.72087 349.54968 431.47075 391.70021 478.2207 443.38016 C 500.54068 468.04013 503.10096 468.18068 525.46094 443.4407 C 572.75089 391.11076 626.50015 349.39913 698.83008 338.58914 C 732.15004 333.63915 765.92097 330.86913 798.71094 323.58914 C 811.46092 320.75914 822.08095 308.27913 836.71094 298.08914 C 838.41094 304.52913 845.26984 316.59056 843.83984 327.53055 C 831.52986 421.62045 798.49085 506.00052 709.71094 552.45047 C 670.34098 573.05045 623.83074 580.0004 580.55078 593.12039 C 577.97078 593.90039 575.3196 594.43094 567.59961 596.43094 C 644.99953 646.38089 709.44001 701.86947 720 799.57938 C 620.3201 807.90937 553.31034 762.60086 501.90039 682.68094 C 450.48044 763.12086 382.89037 808.38015 283.48047 799.38016 C 295.68046 701.00025 359.33961 644.44964 441.01953 594.64969 C 307.60966 581.1997 211.22934 524.71049 172.60938 393.36063 C 157.33939 341.39068 156.56939 313.94053 172.85938 292.78055 z "
            transform="translate(-2.5 -1.47)"/>
</svg>
