<?xml version="1.0" encoding="UTF-8" standalone="no"?>
<svg
        id="Livello_1"
        data-name="Livello 1"
        viewBox="0 0 995.02 993.76"
        version="1.1"
        sodipodi:docname="yellow (copy).svg"
        inkscape:version="1.2 (dc2aedaf03, 2022-05-15)"
        xmlns:inkscape="http://www.inkscape.org/namespaces/inkscape"
        xmlns:sodipodi="http://sodipodi.sourceforge.net/DTD/sodipodi-0.dtd"
        xmlns="http://www.w3.org/2000/svg"
        xmlns:svg="http://www.w3.org/2000/svg">
    <sodipodi:namedview
            id="namedview9"
            pagecolor="#ffffff"
            bordercolor="#666666"
            borderopacity="1.0"
            inkscape:showpageshadow="2"
            inkscape:pageopacity="0.0"
            inkscape:pagecheckerboard="0"
            inkscape:deskcolor="#d1d1d1"
            showgrid="false"
            inkscape:zoom="0.59698779"
            inkscape:cx="556.12528"
            inkscape:cy="489.12223"
            inkscape:window-width="1920"
            inkscape:window-height="1011"
            inkscape:window-x="0"
            inkscape:window-y="32"
            inkscape:window-maximized="1"
            inkscape:current-layer="Livello_1"/>
    <defs
            id="defs4">
        <style
                id="style2">.cls-1{fill:#fcb418;}
        </style>
    </defs>
    <ellipse
            style="fill:#f8ff00;stroke:none;stroke-width:5;stroke-opacity:0.998;fill-opacity:1"
            id="path845"
            cx="497.97577"
            cy="496.48489"
            rx="355.86795"
            ry="347.01859"/>
    <path
            id="path6"
            style="stroke:#000000;stroke-opacity:0.99800003;stroke-width:5;stroke-dasharray:none"
            class="cls-1"
            d="M 253.02383 67.943438 C 252.31888 68.348636 251.61138 68.749739 250.90859 69.158281 L 2.8773438 498.75789 C 2.8773651 498.7795 2.8792728 498.80074 2.8792969 498.82234 L 250.98867 928.56062 C 251.60926 928.9212 252.23162 929.27884 252.85391 929.6368 L 747.89102 929.6368 C 748.49816 929.28798 749.10775 928.94318 749.71328 928.59187 L 997.85586 498.795 C 997.85586 498.79107 997.85586 498.78721 997.85586 498.78328 L 749.70352 68.972734 C 749.10757 68.626996 748.50806 68.286772 747.91055 67.943438 L 253.02383 67.943438 z M 801.27969 330.23055 C 795.46969 339.59054 794.00031 344.99945 791.42031 345.60945 C 735.37037 358.86944 710.5392 402.58028 691.29922 450.16023 C 673.82924 493.36019 660.2692 538.11098 643.54922 581.63094 C 621.95924 637.87088 591.31971 688.84019 538.85977 721.08016 C 462.98984 767.72011 384.5393 764.56925 308.45938 721.4493 C 271.54941 700.53932 251.71093 665.31925 247.31094 622.6993 C 241.37094 564.78935 250.31096 509.33065 276.31094 456.8907 C 285.87093 437.60072 298.87987 427.88992 322.68984 429.08992 C 367.1698 431.32992 411.86989 430.34953 456.43984 429.18953 C 471.53983 428.78953 482.01977 433.25056 488.85977 445.98055 C 501.17975 468.91052 512.87009 492.19096 525.18008 515.13094 C 528.67007 521.64093 533.98938 532.95016 537.45938 532.58016 C 546.58937 531.60016 557.79071 527.5496 563.3207 520.76961 C 570.3207 512.16962 572.82016 499.77015 576.76016 488.83016 C 606.00013 408.00024 661.68008 355.83092 745.35 335.13094 C 761.21998 331.23094 778.27971 332.09055 801.27969 330.23055 z "
            transform="translate(-2.85 -1.92)"/>
</svg>
